<svg xmlns="http://www.w3.org/2000/svg" xmlns:xlink="http://www.w3.org/1999/xlink" display="none" version="1.1">
	<defs>
		<symbol id="facebook" viewBox="0 0 32 32">
		  <circle cx="16" cy="16" r="15.9" fill="#767676"/>
		  <path fill="#fff" d="M13.69 24.903h3.68V16h2.453l.325-3.07h-2.78l.005-1.535c0-.8.076-1.23 1.224-1.23h1.534V7.098h-2.454c-2.95 0-3.986 1.49-3.986 3.992v1.84h-1.838V16h1.838v8.903z"/>
		</symbol>

		<symbol id="twitter" viewBox="0 0 32 32">
		  <circle cx="16" cy="16" r="15.9" fill="#767676"/>
		  <path fill="#fff" d="M18.226 8.886c-1.59.58-2.595 2.07-2.48 3.704l.037.63-.636-.077c-2.315-.296-4.338-1.3-6.056-2.984l-.84-.837-.214.617c-.458 1.376-.165 2.83.79 3.808.508.54.393.617-.484.296-.305-.103-.573-.18-.598-.14-.09.09.216 1.26.458 1.723.33.644 1.005 1.273 1.743 1.647l.624.296-.74.01c-.712 0-.738.014-.66.285.253.836 1.258 1.724 2.378 2.11l.79.27-.688.412c-1.018.593-2.214.927-3.41.95-.573.014-1.044.065-1.044.104 0 .13 1.553.85 2.455 1.133 2.71.836 5.93.475 8.347-.952 1.718-1.015 3.435-3.035 4.237-4.99.433-1.042.865-2.946.865-3.86 0-.59.037-.668.75-1.375.42-.412.813-.862.89-.99.128-.245.114-.245-.534-.026-1.08.385-1.234.334-.7-.245.395-.412.866-1.158.866-1.376 0-.04-.19.025-.407.14-.23.13-.738.322-1.12.437l-.687.22-.623-.427c-.344-.23-.826-.49-1.08-.566-.65-.18-1.643-.154-2.23.052z"/>
		</symbol>

		<symbol id="close" viewBox="0 0 24 24">
		  <path fill="#fff" d="M19 6.41L17.59 5 12 10.59 6.41 5 5 6.41 10.59 12 5 17.59 6.41 19 12 13.41 17.59 19 19 17.59 13.41 12z"/>
		  <path fill="none" d="M0 0h24v24H0z"/>
		</symbol>
	</defs>
</svg>
